<?xml version="1.0" encoding="utf-8"?>
<!-- Generator: Adobe Illustrator 24.0.3, SVG Export Plug-In . SVG Version: 6.00 Build 0)  -->
<svg version="1.1" id="Capa_1" xmlns="http://www.w3.org/2000/svg" xmlns:xlink="http://www.w3.org/1999/xlink" x="0px" y="0px"
	 viewBox="0 0 52.73 52.75" style="enable-background:new 0 0 52.73 52.75;" xml:space="preserve">
<style type="text/css">
	.st0{fill:#BA143D;}
</style>
<g>
	<circle class="st0" cx="26.37" cy="26.37" r="20.86"/>
	<path class="st0" d="M36.41,48.59c-0.29,0.13-0.58,0.26-0.88,0.38c-0.51,0.21-0.76,0.79-0.55,1.3c0.16,0.39,0.53,0.62,0.93,0.62
		c0.13,0,0.25-0.02,0.38-0.07c0.32-0.13,0.64-0.27,0.95-0.41c0.5-0.23,0.73-0.82,0.5-1.32C37.51,48.59,36.91,48.36,36.41,48.59z"/>
	<path class="st0" d="M40.73,46.07c-0.47,0.35-0.96,0.68-1.46,0.99c-0.47,0.29-0.61,0.91-0.32,1.38c0.19,0.3,0.52,0.47,0.85,0.47
		c0.18,0,0.36-0.05,0.53-0.15c0.54-0.34,1.07-0.69,1.58-1.07c0.45-0.33,0.54-0.95,0.22-1.4C41.8,45.84,41.17,45.74,40.73,46.07z"/>
	<path class="st0" d="M44.72,42.41c-0.57,0.65-1.18,1.28-1.82,1.87c-0.41,0.37-0.43,1.01-0.06,1.41c0.2,0.21,0.47,0.32,0.74,0.32
		c0.24,0,0.49-0.09,0.68-0.27c0.69-0.64,1.36-1.32,1.97-2.03c0.36-0.42,0.32-1.05-0.09-1.41C45.72,41.96,45.08,42,44.72,42.41z"/>
	<path class="st0" d="M49.11,37.68c-0.49-0.27-1.09-0.09-1.36,0.4c-0.39,0.72-0.83,1.42-1.29,2.1c-0.31,0.45-0.2,1.08,0.26,1.39
		c0.17,0.12,0.37,0.18,0.57,0.18c0.32,0,0.63-0.15,0.83-0.43c0.5-0.73,0.97-1.49,1.4-2.27C49.78,38.55,49.6,37.95,49.11,37.68z"/>
	<path class="st0" d="M51.67,28.62c-0.55-0.07-1.05,0.32-1.12,0.87c-0.26,2.04-0.78,4.03-1.53,5.93c-0.21,0.51,0.04,1.09,0.56,1.3
		c0.12,0.05,0.25,0.07,0.37,0.07c0.4,0,0.77-0.24,0.93-0.63c0.82-2.06,1.38-4.22,1.66-6.42C52.6,29.19,52.21,28.69,51.67,28.62z"/>
	<path class="st0" d="M26.37,50.75C12.93,50.75,2,39.81,2,26.37S12.93,2,26.37,2c13.22,0,23.92,10.34,24.36,23.55
		c0.02,0.55,0.45,0.98,1.03,0.97c0.55-0.02,0.98-0.48,0.97-1.03C52.26,11.19,40.68,0,26.37,0C11.83,0,0,11.83,0,26.37
		s11.83,26.37,26.37,26.37c0.55,0,1-0.45,1-1S26.92,50.75,26.37,50.75z"/>
</g>
</svg>
