<?xml version="1.0" encoding="utf-8"?>
<!-- Generator: Adobe Illustrator 24.0.3, SVG Export Plug-In . SVG Version: 6.00 Build 0)  -->
<svg version="1.0" id="Capa_1" xmlns="http://www.w3.org/2000/svg" xmlns:xlink="http://www.w3.org/1999/xlink" x="0px" y="0px"
	 viewBox="0 0 52.73 52.75" style="enable-background:new 0 0 52.73 52.75;" xml:space="preserve">
<style type="text/css">
	.st0{fill:#FFFFFF;}
</style>
<g>
	<path class="st0" d="M32.85,10.68H19.88c-1.39,0-2.52,1.13-2.52,2.52v26.35c0,1.39,1.13,2.52,2.52,2.52h12.97
		c1.39,0,2.52-1.13,2.52-2.52V13.2C35.37,11.81,34.24,10.68,32.85,10.68z M32.85,40.53H19.88c-0.54,0-0.99-0.44-0.99-0.99v-3.66
		h14.94v3.66C33.84,40.09,33.39,40.53,32.85,40.53z M33.84,15.3v19.06H18.9V15.3H33.84z M33.84,13.2v0.57H18.9V13.2
		c0-0.54,0.44-0.99,0.99-0.99h12.97C33.39,12.21,33.84,12.65,33.84,13.2z"/>
	<path class="st0" d="M26.37,36.72c-0.82,0-1.49,0.67-1.49,1.49c0,0.82,0.67,1.49,1.49,1.49s1.49-0.67,1.49-1.49
		C27.86,37.39,27.19,36.72,26.37,36.72z M26.37,38.96c-0.41,0-0.75-0.34-0.75-0.75c0-0.41,0.33-0.74,0.75-0.74s0.74,0.34,0.74,0.74
		C27.11,38.62,26.78,38.96,26.37,38.96z"/>
	<path class="st0" d="M26.37,12.66h-1.33c-0.18,0-0.33,0.15-0.33,0.33c0,0.18,0.15,0.33,0.33,0.33h1.33c0.18,0,0.33-0.15,0.33-0.33
		C26.7,12.81,26.55,12.66,26.37,12.66z"/>
	<path class="st0" d="M27.69,12.66h-0.33c-0.18,0-0.33,0.15-0.33,0.33c0,0.18,0.15,0.33,0.33,0.33h0.33c0.18,0,0.33-0.15,0.33-0.33
		C28.02,12.81,27.88,12.66,27.69,12.66z"/>
</g>
</svg>
